<svg width="36" height="31" viewBox="0 0 36 31" fill="none" xmlns="http://www.w3.org/2000/svg">
<path d="M21.442 9.74719C19.5134 9.74719 18.0003 11.8976 18.0003 11.8976C18.0003 11.8976 16.573 9.74719 14.5577 9.74719C12.5976 9.74719 10.9969 11.3639 10.8921 13.3214C10.8331 14.4273 11.1896 15.2688 11.6919 16.0311C12.6956 17.554 18.0067 21.0789 18.0067 21.0789C18.0067 21.0789 23.2979 17.5673 24.3082 16.0311C24.8115 15.2654 25.1671 14.4272 25.1078 13.3214C25.0031 11.3639 23.4023 9.74719 21.442 9.74719Z" fill="#2FDF84"/>
<path d="M35.2969 23.7791H34.6371V3.50443C34.6371 1.92465 33.3519 0.639404 31.7721 0.639404H4.22789C2.64811 0.639404 1.36287 1.92465 1.36287 3.50443V23.7792H0.703125C0.314789 23.7792 0 24.094 0 24.4823V27.1124C0 28.8865 1.4433 30.3299 3.21743 30.3299H32.7825C34.5566 30.3299 36 28.8866 36 27.1125V24.4824C36 24.0939 35.6851 23.7791 35.2969 23.7791ZM4.22789 2.04565H31.7721C32.5765 2.04565 33.2309 2.70005 33.2309 3.50436V5.46165H2.76912V3.50443C2.76912 2.70005 3.42352 2.04565 4.22789 2.04565ZM2.76912 6.8679H33.2309V23.7791H23.0894C22.7012 23.7791 22.3863 24.0939 22.3863 24.4822C22.3863 24.9313 22.021 25.2966 21.5719 25.2966H14.4281C13.979 25.2966 13.6137 24.9312 13.6137 24.4822C13.6137 24.0939 13.2989 23.7791 12.9106 23.7791H2.76912V6.8679ZM34.5938 27.1124C34.5938 28.1111 33.7812 28.9236 32.7825 28.9236H3.21743C2.21871 28.9236 1.40625 28.1111 1.40625 27.1123V25.1854H12.3215C12.6163 26.0662 13.4493 26.7028 14.4281 26.7028H21.5718C22.5506 26.7028 23.3836 26.0662 23.6784 25.1854H34.5938V27.1124Z" fill="#00B871"/>
<path d="M17.6055 4.37378H18.3954C18.7836 4.37378 19.0985 4.05899 19.0985 3.67065C19.0985 3.28232 18.7836 2.96753 18.3954 2.96753H17.6055C17.2171 2.96753 16.9023 3.28232 16.9023 3.67065C16.9023 4.05899 17.2171 4.37378 17.6055 4.37378Z" fill="#00B871"/>
<path d="M28.625 14.9027H29.3644C29.7527 14.9027 30.0675 14.5879 30.0675 14.1996C30.0675 13.8112 29.7527 13.4965 29.3644 13.4965H28.625C28.2367 13.4965 27.9219 13.8112 27.9219 14.1996C27.9219 14.5879 28.2367 14.9027 28.625 14.9027Z" fill="#00B871"/>
<path d="M26.8497 10.9198C27.0297 10.9198 27.2096 10.8511 27.3468 10.7139L27.8696 10.1911C28.1442 9.91655 28.1442 9.47133 27.8696 9.19676C27.595 8.92219 27.1498 8.92219 26.8752 9.19683L26.3524 9.71961C26.0778 9.99418 26.0778 10.4394 26.3524 10.714C26.4898 10.8511 26.6697 10.9198 26.8497 10.9198Z" fill="#00B871"/>
<path d="M26.8753 19.2023C27.0126 19.3396 27.1925 19.4083 27.3724 19.4083C27.5524 19.4083 27.7323 19.3396 27.8696 19.2023C28.1442 18.9277 28.1442 18.4825 27.8696 18.2079L27.3468 17.6852C27.0723 17.4106 26.6272 17.4106 26.3524 17.6852C26.0778 17.9597 26.0778 18.405 26.3524 18.6795L26.8753 19.2023Z" fill="#00B871"/>
<path d="M7.37508 13.4965H6.63574C6.24741 13.4965 5.93262 13.8112 5.93262 14.1996C5.93262 14.5879 6.24741 14.9027 6.63574 14.9027H7.37508C7.76341 14.9027 8.0782 14.5879 8.0782 14.1996C8.0782 13.8112 7.76341 13.4965 7.37508 13.4965Z" fill="#00B871"/>
<path d="M8.65351 17.6852L8.13073 18.2079C7.85616 18.4825 7.85616 18.9277 8.13073 19.2024C8.26805 19.3397 8.44798 19.4083 8.62791 19.4083C8.80784 19.4083 8.98784 19.3397 9.12509 19.2024L9.64786 18.6796C9.92244 18.405 9.92244 17.9598 9.64786 17.6852C9.37336 17.4106 8.92815 17.4106 8.65351 17.6852Z" fill="#00B871"/>
<path d="M9.12516 9.19671C8.85059 8.92214 8.40537 8.92214 8.13073 9.19671C7.85616 9.47128 7.85616 9.9165 8.13073 10.1911L8.65351 10.7139C8.79083 10.8512 8.97076 10.9199 9.15069 10.9199C9.33061 10.9199 9.51061 10.8512 9.64786 10.7139C9.92244 10.4393 9.92244 9.99413 9.64786 9.71948L9.12516 9.19671Z" fill="#00B871"/>
</svg>
