<svg width="36" height="37" viewBox="0 0 36 37" fill="none" xmlns="http://www.w3.org/2000/svg">
<g clip-path="url(#clip0_198_9880)">
<path d="M18.425 6.60052H17.5898C17.2015 6.60052 16.8867 6.91531 16.8867 7.30365C16.8867 7.69199 17.2015 8.00677 17.5898 8.00677H18.425C18.8134 8.00677 19.1281 7.69199 19.1281 7.30365C19.1281 6.91531 18.8134 6.60052 18.425 6.60052Z" fill="#00B871"/>
<path d="M22.2883 6.60052H21.4531C21.0648 6.60052 20.75 6.91531 20.75 7.30365C20.75 7.69199 21.0648 8.00677 21.4531 8.00677H22.2883C22.6766 8.00677 22.9914 7.69199 22.9914 7.30365C22.9914 6.91531 22.6766 6.60052 22.2883 6.60052Z" fill="#00B871"/>
<path d="M26.1516 6.60052H25.3164C24.9281 6.60052 24.6133 6.91531 24.6133 7.30365C24.6133 7.69199 24.9281 8.00677 25.3164 8.00677H26.1516C26.5399 8.00677 26.8547 7.69199 26.8547 7.30365C26.8547 6.91531 26.5399 6.60052 26.1516 6.60052Z" fill="#00B871"/>
<path d="M10.5394 6.60052H4.51172C4.12338 6.60052 3.80859 6.91531 3.80859 7.30365C3.80859 7.69199 4.12338 8.00677 4.51172 8.00677H10.5394C10.9277 8.00677 11.2425 7.69199 11.2425 7.30365C11.2425 6.91531 10.9277 6.60052 10.5394 6.60052Z" fill="#00B871"/>
<path d="M10.1135 14.1333C8.49298 14.1333 7.17462 15.4552 7.17462 17.0802V17.3017H5.2998C4.91147 17.3017 4.59668 17.6165 4.59668 18.0048V25.9905C4.59668 27.3116 5.67148 28.3863 6.99251 28.3863H13.2505C14.5716 28.3863 15.6463 27.3115 15.6463 25.9905V18.0048C15.6463 17.6165 15.3315 17.3017 14.9432 17.3017H13.0522V17.0802C13.0523 15.4553 11.734 14.1333 10.1135 14.1333ZM8.58094 17.0802C8.58094 16.2307 9.26845 15.5396 10.1135 15.5396C10.9586 15.5396 11.6461 16.2307 11.6461 17.0802V17.3017H8.58094V17.0802ZM14.2401 18.708V25.9905C14.2401 26.5362 13.7962 26.9801 13.2505 26.9801H6.99251C6.44681 26.9801 6.00293 26.5361 6.00293 25.9905V18.708H7.17469V20.1901C7.17469 20.5784 7.48948 20.8932 7.87781 20.8932C8.26615 20.8932 8.58094 20.5784 8.58094 20.1901V18.708H11.6461V20.1901C11.6461 20.5784 11.9609 20.8932 12.3492 20.8932C12.7375 20.8932 13.0523 20.5784 13.0523 20.1901V18.708H14.2401Z" fill="#00B871"/>
<path d="M26.2898 31.4461H2.36348C1.83565 31.4461 1.40625 31.0188 1.40625 30.4936V11.2896H28.4799V17.9856H29.8861V5.67639C29.8861 4.37575 28.8259 3.31769 27.5226 3.31769H2.36348C1.06024 3.31762 0 4.37575 0 5.67639V30.4936C0 31.7942 1.06024 32.8523 2.36348 32.8523H28.5293C27.8241 32.5097 27.027 32.0472 26.2898 31.4461ZM1.40625 5.67639C1.40625 5.15116 1.83565 4.72394 2.36348 4.72394H27.5226C28.0505 4.72394 28.4799 5.15123 28.4799 5.67639V9.8834H1.40625V5.67639Z" fill="#00B871"/>
<path d="M34.1742 19.7755C32.4241 19.7755 30.9147 18.7559 30.2123 17.2824H28.1541C27.4518 18.7559 25.9422 19.7755 24.1922 19.7755C23.5404 19.7755 22.9221 19.634 22.3662 19.3805V26.5844C22.3662 31.8534 29.1831 33.6515 29.1831 33.6515C29.1831 33.6515 36.0002 31.8534 36.0002 26.5844V19.3805C35.4443 19.634 34.8259 19.7755 34.1742 19.7755Z" fill="#2FDF84"/>
<path d="M28.9732 27.5328C28.788 27.5328 28.6097 27.4597 28.4777 27.3285L27.2994 26.1579C27.0239 25.8841 27.0224 25.439 27.2961 25.1635C27.5698 24.888 28.015 24.8865 28.2905 25.1603L28.9279 25.7935L30.7927 23.5847C31.0432 23.2879 31.4868 23.2504 31.7836 23.501C32.0803 23.7515 32.1177 24.1952 31.8672 24.4919L29.5105 27.2833C29.3838 27.4334 29.2001 27.5236 29.004 27.5323C28.9938 27.5326 28.9835 27.5328 28.9732 27.5328Z" fill="#00B871"/>
</g>
<defs>
<clipPath id="clip0_198_9880">
<rect width="36" height="36" fill="white" transform="translate(0 0.484619)"/>
</clipPath>
</defs>
</svg>
