<svg width="18" height="19" viewBox="0 0 18 19" fill="none" xmlns="http://www.w3.org/2000/svg">
<path d="M13.44 9.19964C13.4043 9.10757 13.3508 9.02346 13.2825 8.95214L9.5325 5.20214C9.46257 5.13221 9.37955 5.07674 9.28819 5.03889C9.19682 5.00105 9.09889 4.98157 9 4.98157C8.80027 4.98157 8.60873 5.06091 8.4675 5.20214C8.39757 5.27207 8.3421 5.35508 8.30426 5.44645C8.26641 5.53782 8.24693 5.63574 8.24693 5.73464C8.24693 5.93436 8.32627 6.12591 8.4675 6.26714L10.9425 8.73464H5.25C5.05109 8.73464 4.86032 8.81365 4.71967 8.95431C4.57902 9.09496 4.5 9.28572 4.5 9.48464C4.5 9.68355 4.57902 9.87431 4.71967 10.015C4.86032 10.1556 5.05109 10.2346 5.25 10.2346H10.9425L8.4675 12.7021C8.3972 12.7719 8.34141 12.8548 8.30333 12.9462C8.26526 13.0376 8.24565 13.1356 8.24565 13.2346C8.24565 13.3336 8.26526 13.4317 8.30333 13.5231C8.34141 13.6145 8.3972 13.6974 8.4675 13.7671C8.53722 13.8374 8.62017 13.8932 8.71157 13.9313C8.80296 13.9694 8.90099 13.989 9 13.989C9.09901 13.989 9.19704 13.9694 9.28843 13.9313C9.37983 13.8932 9.46278 13.8374 9.5325 13.7671L13.2825 10.0171C13.3508 9.94581 13.4043 9.8617 13.44 9.76964C13.515 9.58704 13.515 9.38223 13.44 9.19964Z" fill="#00B871"/>
</svg>
