<svg width="36" height="37" viewBox="0 0 36 37" fill="none" xmlns="http://www.w3.org/2000/svg">
<g clip-path="url(#clip0_198_9862)">
<path d="M19.4399 13.5792V14.9044L6.74023 19.0481V23.0562L8.50817 23.5395V30.1552H10.9432C11.6352 30.1552 12.1961 29.5942 12.1961 28.9022V24.5476L19.4399 26.5277V27.8529H22.5142V13.5792H19.4399Z" fill="#2FDF84"/>
<path d="M33.4191 2.48718H2.58089C1.15777 2.48718 0 3.64741 0 5.07356V32.3421C0 33.5221 0.95632 34.482 2.13166 34.482H33.8683C35.0437 34.482 35.9999 33.5221 35.9999 32.3421V5.07356C36 3.64741 34.8422 2.48718 33.4191 2.48718ZM1.40625 5.07356C1.40625 4.42289 1.93317 3.8935 2.58089 3.8935H33.4191C34.0668 3.8935 34.5938 4.42289 34.5938 5.07356V9.25237H1.40625V5.07356ZM34.5938 32.342C34.5938 32.7466 34.2683 33.0757 33.8683 33.0757H2.13166C1.73166 33.0757 1.40625 32.7466 1.40625 32.342V10.6585H34.5938V32.342Z" fill="#00B871"/>
<path d="M23.131 5.86981H22.1865C21.7982 5.86981 21.4834 6.1846 21.4834 6.57294C21.4834 6.96127 21.7982 7.27606 22.1865 7.27606H23.131C23.5194 7.27606 23.8342 6.96127 23.8342 6.57294C23.8342 6.1846 23.5194 5.86981 23.131 5.86981Z" fill="#00B871"/>
<path d="M27.4992 5.86981H26.5547C26.1664 5.86981 25.8516 6.1846 25.8516 6.57294C25.8516 6.96127 26.1664 7.27606 26.5547 7.27606H27.4992C27.8875 7.27606 28.2023 6.96127 28.2023 6.57294C28.2023 6.1846 27.8875 5.86981 27.4992 5.86981Z" fill="#00B871"/>
<path d="M31.8683 5.86981H30.9238C30.5355 5.86981 30.2207 6.1846 30.2207 6.57294C30.2207 6.96127 30.5355 7.27606 30.9238 7.27606H31.8683C32.2567 7.27606 32.5715 6.96127 32.5715 6.57294C32.5715 6.1846 32.2567 5.86981 31.8683 5.86981Z" fill="#00B871"/>
<path d="M11.8275 5.86981H5.01074C4.62241 5.86981 4.30762 6.1846 4.30762 6.57294C4.30762 6.96127 4.62241 7.27606 5.01074 7.27606H11.8275C12.2158 7.27606 12.5306 6.96127 12.5306 6.57294C12.5306 6.1846 12.2158 5.86981 11.8275 5.86981Z" fill="#00B871"/>
<path d="M27.8534 20.716C27.8534 21.6364 27.4962 22.5004 26.8476 23.149C26.573 23.4236 26.5729 23.8688 26.8476 24.1433C26.9849 24.2807 27.1648 24.3493 27.3447 24.3493C27.5247 24.3493 27.7047 24.2806 27.8419 24.1433C28.7562 23.2291 29.2597 22.0119 29.2597 20.716C29.2597 19.42 28.7562 18.2028 27.842 17.2885C27.5674 17.0139 27.1222 17.0139 26.8476 17.2885C26.5731 17.5631 26.5731 18.0083 26.8476 18.2829C27.4962 18.9316 27.8534 19.7958 27.8534 20.716Z" fill="#00B871"/>
<path d="M24.66 21.9558C24.7973 22.0932 24.9773 22.1618 25.1572 22.1618C25.3371 22.1618 25.5171 22.0932 25.6544 21.9558C26.338 21.2722 26.338 20.1598 25.6544 19.4762C25.3798 19.2016 24.9346 19.2016 24.66 19.4762C24.3855 19.7508 24.3855 20.196 24.66 20.4706C24.7485 20.5591 24.7617 20.6624 24.7617 20.716C24.7617 20.7697 24.7485 20.873 24.66 20.9614C24.3855 21.236 24.3855 21.6813 24.66 21.9558Z" fill="#00B871"/>
</g>
<defs>
<clipPath id="clip0_198_9862">
<rect width="36" height="36" fill="white" transform="translate(0 0.484619)"/>
</clipPath>
</defs>
</svg>
