<svg width="36" height="37" viewBox="0 0 36 37" fill="none" xmlns="http://www.w3.org/2000/svg">
<g clip-path="url(#clip0_198_9902)">
<path d="M20.1729 21.706C23.0255 18.8534 23.0255 14.2284 20.1729 11.3758C17.3203 8.52324 12.6954 8.52324 9.8428 11.3758C6.99021 14.2284 6.99021 18.8534 9.8428 21.706C12.6954 24.5585 17.3203 24.5585 20.1729 21.706Z" fill="#2FDF84"/>
<path d="M15.8733 15.9619C15.7862 15.9312 15.7028 15.9015 15.6229 15.8728V14.0117C15.8006 14.0817 15.9254 14.1796 15.9915 14.2737C16.2146 14.5916 16.653 14.6685 16.9709 14.4453C17.2887 14.2222 17.3657 13.7837 17.1426 13.4659C16.8452 13.0421 16.3141 12.6861 15.6229 12.5578V12.4882C15.6229 12.0998 15.3081 11.785 14.9198 11.785C14.5315 11.785 14.2166 12.0998 14.2166 12.4882V12.6087C14.1385 12.6273 14.0594 12.6486 13.9795 12.6727C13.1624 12.9188 12.5457 13.7115 12.4799 14.6005C12.4146 15.4806 12.882 16.2447 13.7302 16.6446C13.8393 16.6962 14.0059 16.7658 14.2166 16.8487V19.1112C13.9456 19.017 13.7017 18.8724 13.5378 18.6689C13.2941 18.3666 12.8515 18.3189 12.5492 18.5624C12.2468 18.806 12.1991 19.2486 12.4427 19.5511C12.8984 20.1169 13.5632 20.4271 14.2166 20.566V20.5936C14.2166 20.982 14.5315 21.2968 14.9198 21.2968C15.2999 21.2968 15.6095 20.9951 15.6224 20.618C16.7751 20.4444 17.5883 19.7003 17.7181 18.6784C17.8659 17.5152 17.1073 16.3982 15.8733 15.9619ZM13.8822 14.7045C13.9002 14.463 14.0343 14.2316 14.2166 14.1028V15.3118C13.9758 15.1642 13.8633 14.9603 13.8822 14.7045ZM16.3231 18.5011C16.2805 18.8358 16.0306 19.0757 15.6229 19.1851V17.3813C16.1647 17.6582 16.3693 18.1369 16.3231 18.5011Z" fill="#00B871"/>
<path d="M15.4804 32.2718H14.543C14.1547 32.2718 13.8398 32.5866 13.8398 32.9749C13.8398 33.3632 14.1547 33.678 14.543 33.678H15.4804C15.8688 33.678 16.1836 33.3632 16.1836 32.9749C16.1836 32.5866 15.8688 32.2718 15.4804 32.2718Z" fill="#00B871"/>
<path d="M31.4369 23.0814H28.9246V22.6384C28.9246 20.9621 27.7381 19.5585 26.1632 19.2278V3.86686C26.1632 2.00189 24.6402 0.484619 22.7682 0.484619H7.25434C5.38234 0.484619 3.85938 2.00189 3.85938 3.86686V33.0961C3.85938 34.9645 5.37946 36.4846 7.24795 36.4846H29.3387C30.8834 36.4846 32.1401 35.2279 32.1401 33.6832V23.7846C32.14 23.3962 31.8253 23.0814 31.4369 23.0814ZM27.5183 22.6384V23.0814H23.3821V22.6384C23.3821 21.4924 24.3098 20.5602 25.4502 20.5602C26.5906 20.5602 27.5183 21.4924 27.5183 22.6384ZM19.4834 23.0814C19.0951 23.0814 18.7803 23.3962 18.7803 23.7846V29.4652H5.26562V6.42919H24.757V19.2237C23.1723 19.5468 21.9758 20.9551 21.9758 22.6384V23.0814H19.4834ZM7.25434 1.89087H22.7683C23.8649 1.89087 24.757 2.77723 24.757 3.86686V5.02294H5.26562V3.86686C5.26562 2.77723 6.15775 1.89087 7.25434 1.89087ZM5.26562 33.0961V30.8714H18.7803V33.6832C18.7803 34.1908 18.916 34.6673 19.153 35.0784H7.24795C6.15487 35.0784 5.26562 34.1891 5.26562 33.0961ZM30.7338 33.6832C30.7338 34.4524 30.1079 35.0784 29.3387 35.0784H21.5816C20.8123 35.0784 20.1864 34.4525 20.1864 33.6832V24.4877H21.9757V26.4932C21.9757 26.8815 22.2906 27.1963 22.6789 27.1963C23.0671 27.1963 23.382 26.8815 23.382 26.4932V24.4877H27.5183V26.4932C27.5183 26.8815 27.8331 27.1963 28.2214 27.1963C28.6097 27.1963 28.9245 26.8815 28.9245 26.4932V24.4877H30.7337V33.6832H30.7338Z" fill="#00B871"/>
</g>
<defs>
<clipPath id="clip0_198_9902">
<rect width="36" height="36" fill="white" transform="translate(0 0.484619)"/>
</clipPath>
</defs>
</svg>
