<svg aria-hidden="true" style="position: absolute; width: 0; height: 0; overflow: hidden;" version="1.1" xmlns="http://www.w3.org/2000/svg" xmlns:xlink="http://www.w3.org/1999/xlink">
<defs>
<symbol id="icon-header-burger" viewBox="0 0 91 32">
<path d="M4.571 11.393h82.286c1.212 0 2.375-0.482 3.232-1.339s1.339-2.020 1.339-3.232-0.482-2.375-1.339-3.232c-0.857-0.857-2.020-1.339-3.232-1.339h-82.286c-1.212 0-2.375 0.482-3.232 1.339s-1.339 2.020-1.339 3.232c0 1.212 0.482 2.375 1.339 3.232s2.020 1.339 3.232 1.339zM86.857 20.536h-82.286c-1.212 0-2.375 0.482-3.232 1.339s-1.339 2.020-1.339 3.232 0.482 2.375 1.339 3.233c0.857 0.857 2.020 1.339 3.232 1.339h82.286c1.212 0 2.375-0.482 3.232-1.339s1.339-2.020 1.339-3.233-0.482-2.375-1.339-3.233c-0.857-0.857-2.020-1.339-3.232-1.339z"></path>
</symbol>
<symbol id="icon-mob-menu-close" viewBox="0 0 30 32">
<path d="M18.24 15.981l10.585-10.56c0.463-0.463 0.724-1.092 0.724-1.748s-0.26-1.284-0.724-1.748c-0.463-0.464-1.092-0.724-1.748-0.724s-1.284 0.26-1.748 0.724l-10.56 10.585-10.56-10.585c-0.463-0.464-1.092-0.724-1.748-0.724s-1.284 0.26-1.748 0.724c-0.464 0.464-0.724 1.092-0.724 1.748s0.26 1.284 0.724 1.748l10.585 10.56-10.585 10.56c-0.231 0.229-0.414 0.501-0.539 0.801s-0.189 0.622-0.189 0.947 0.064 0.647 0.189 0.947c0.125 0.3 0.308 0.572 0.539 0.801 0.229 0.231 0.501 0.414 0.801 0.539s0.622 0.189 0.947 0.189c0.325 0 0.647-0.064 0.947-0.189s0.572-0.308 0.801-0.539l10.56-10.585 10.56 10.585c0.229 0.231 0.501 0.414 0.801 0.539s0.622 0.189 0.946 0.189c0.325 0 0.647-0.064 0.947-0.189s0.572-0.308 0.801-0.539c0.231-0.229 0.414-0.501 0.539-0.801s0.189-0.622 0.189-0.947-0.064-0.647-0.189-0.947c-0.125-0.3-0.308-0.572-0.539-0.801l-10.585-10.56z"></path>
</symbol>
<symbol id="icon-drop-down-arrow" viewBox="0 0 48 32">
<path d="M44.001 4.68c-0.75-0.745-1.763-1.163-2.82-1.163s-2.071 0.418-2.82 1.163l-14.36 14.16-14.16-14.16c-0.749-0.745-1.763-1.163-2.82-1.163s-2.071 0.418-2.82 1.163c-0.375 0.372-0.672 0.814-0.876 1.302s-0.308 1.010-0.308 1.538c0 0.528 0.105 1.051 0.308 1.538s0.501 0.93 0.876 1.302l16.96 16.96c0.372 0.375 0.814 0.673 1.302 0.876s1.010 0.308 1.538 0.308 1.051-0.105 1.538-0.308c0.487-0.203 0.93-0.501 1.302-0.876l17.16-16.96c0.375-0.372 0.672-0.814 0.876-1.302s0.308-1.010 0.308-1.538c0-0.528-0.104-1.051-0.308-1.538s-0.501-0.93-0.876-1.302z"></path>
</symbol>
<symbol id="icon-right-arrow" viewBox="0 0 32 32">
<path d="M31.787 14.986c-0.127-0.327-0.317-0.626-0.56-0.88l-13.333-13.333c-0.249-0.249-0.544-0.446-0.869-0.58s-0.673-0.204-1.025-0.204c-0.71 0-1.391 0.282-1.893 0.784-0.249 0.249-0.446 0.544-0.58 0.869s-0.204 0.673-0.204 1.025c0 0.71 0.282 1.391 0.784 1.893l8.8 8.773h-20.24c-0.707 0-1.386 0.281-1.886 0.781s-0.781 1.178-0.781 1.886c0 0.707 0.281 1.386 0.781 1.886s1.178 0.781 1.886 0.781h20.24l-8.8 8.773c-0.25 0.248-0.448 0.543-0.584 0.868s-0.205 0.673-0.205 1.025c0 0.352 0.070 0.701 0.205 1.026s0.334 0.62 0.584 0.868c0.248 0.25 0.543 0.449 0.868 0.584s0.674 0.205 1.026 0.205 0.701-0.070 1.026-0.205c0.325-0.135 0.62-0.334 0.868-0.584l13.333-13.333c0.243-0.254 0.433-0.553 0.56-0.88 0.267-0.649 0.267-1.377 0-2.027z"></path>
</symbol>
<symbol id="icon-atlassian" viewBox="0 0 151 32">
<path d="M106.045 20.693c-2.168-0.543-2.168-0.566-2.168-1.721 0-0.778 0.079-1.149 1.865-1.149 1.227 0 3.031 0.204 4.192 0.401 0.159 0.023 0.322-0.011 0.452-0.113 0.131-0.090 0.215-0.238 0.233-0.396l0.331-2.587c0.023-0.294-0.163-0.566-0.466-0.634-1.352-0.301-3.218-0.498-4.756-0.498-5.386 0-6.482 1.97-6.482 4.929 0 3.252 0.618 4.347 4.738 5.32 2.714 0.634 2.714 1.104 2.714 1.885 0 1.026-0.093 1.381-1.865 1.381-1.432 0-3.087-0.215-4.542-0.593-0.163-0.039-0.326-0.014-0.466 0.068-0.14 0.088-0.24 0.226-0.27 0.385l-0.445 2.469c-0.054 0.283 0.117 0.56 0.396 0.649 1.59 0.498 3.87 0.838 5.544 0.838 5.209 0 6.272-2.128 6.272-5.298 0-3.509-0.639-4.166-5.283-5.359l0.007 0.023v0.001zM92.538 20.693c-2.168-0.543-2.168-0.566-2.168-1.721 0-0.778 0.079-1.149 1.865-1.149 1.224 0 3.031 0.204 4.192 0.401 0.158 0.023 0.322-0.011 0.452-0.113 0.131-0.090 0.214-0.238 0.233-0.396l0.331-2.587c0.037-0.294-0.159-0.566-0.455-0.634-1.329-0.301-3.194-0.498-4.733-0.498-5.372 0-6.482 1.97-6.482 4.929 0 3.252 0.629 4.347 4.747 5.32 2.714 0.634 2.714 1.104 2.714 1.885 0 1.026-0.093 1.381-1.865 1.381-1.434 0-3.089-0.215-4.547-0.593-0.163-0.039-0.327-0.014-0.466 0.068-0.14 0.088-0.24 0.226-0.27 0.385l-0.466 2.456c-0.047 0.283 0.116 0.561 0.403 0.65 1.585 0.498 3.866 0.838 5.542 0.838 5.199 0 6.272-2.128 6.272-5.298 0-3.509-0.648-4.166-5.293-5.359l-0.007 0.023v0.013zM44.73 8.8c-0.077-0.24-0.303-0.403-0.564-0.403h-5.522c-0.257 0-0.49 0.162-0.567 0.4l-6.968 21.439c-0.054 0.17-0.023 0.362 0.089 0.509s0.289 0.234 0.478 0.234h3.8c0.264 0 0.494-0.17 0.569-0.408l4.8-15.78c0 0 0.128-0.396 0.56-0.396 0.443 0 0.56 0.407 0.56 0.407l2.227 7.482h-2.984c-0.257 0-0.49 0.173-0.56 0.419l-0.863 2.966c-0.047 0.17 0 0.362 0.093 0.498 0.117 0.144 0.303 0.226 0.49 0.226h5.095l1.341 4.18c0.075 0.238 0.303 0.401 0.559 0.401h3.8c0.187 0 0.368-0.090 0.48-0.238 0.116-0.149 0.149-0.34 0.093-0.514l-6.975-21.462-0.023 0.036-0.007 0.002zM117.358 14.34h-3.497c-0.326 0-0.59 0.257-0.59 0.574v15.531c0 0.317 0.266 0.579 0.592 0.579h3.497c0.327 0 0.591-0.257 0.591-0.577v-15.527c0-0.317-0.257-0.569-0.583-0.569l-0.012-0.009 0.001-0.001zM67.766 7.978h-3.497c-0.326 0-0.59 0.257-0.59 0.574v21.893c0 0.317 0.266 0.579 0.592 0.579h3.497c0.327 0 0.59-0.257 0.59-0.577v-21.889c0-0.317-0.257-0.569-0.583-0.569l-0.009-0.009v-0.001zM146.386 14.006c-1.847 0-4.371 0.62-6.505 1.594l-0.256-0.838c-0.070-0.249-0.303-0.413-0.566-0.413h-2.588c-0.326 0-0.595 0.257-0.595 0.574v15.531c0 0.317 0.257 0.577 0.584 0.577h3.497c0.326 0 0.595-0.256 0.595-0.577v-10.754c1.258-0.623 3.031-1.268 4.083-1.268 0.788 0 1.079 0.288 1.079 1.053v10.958c0 0.321 0.269 0.577 0.595 0.577h3.497c0.326 0 0.59-0.256 0.59-0.577v-11.402c0-3.334-1.352-5.026-4.013-5.026h-0.003l0.005-0.008zM14.198 23.24c-0.093-0.091-0.226-0.187-0.455-0.187-0.291 0-0.462 0.195-0.527 0.29-1.632 2.422-2.471 4.709-2.588 7.007-0.004 0.17 0.062 0.34 0.181 0.464 0.117 0.136 0.291 0.204 0.466 0.204h3.875c0.338 0 0.618-0.249 0.641-0.566 0.093-1.109 0.443-2.219 1.096-3.373 0.222-0.408 0.047-0.781-0.082-0.943-0.641-0.815-1.426-1.675-2.592-2.859l-0.005-0.023-0.012-0.014zM79.105 24.892v2c-0.571 0.317-1.62 0.747-2.891 0.747-1.084 0-1.422-0.317-1.422-1.381 0-1.019 0.21-1.34 1.492-1.34h2.821v-0.026zM128.791 24.892v2c-0.584 0.317-1.632 0.747-2.891 0.747-1.084 0-1.422-0.317-1.422-1.381 0-1.019 0.21-1.34 1.492-1.34h2.821v-0.026zM61.304 27.705c-0.023-0.163-0.117-0.306-0.256-0.396s-0.306-0.118-0.469-0.079c-0.63 0.149-1.212 0.231-1.679 0.231-0.863 0-1.259-0.362-1.259-1.177v-8.23h3.392c0.326 0 0.592-0.26 0.592-0.577v-2.57c0-0.317-0.268-0.577-0.595-0.577h-3.381v-3.95c0-0.17-0.079-0.325-0.21-0.436-0.128-0.11-0.303-0.158-0.466-0.136l-3.497 0.475c-0.294 0.037-0.513 0.28-0.513 0.566v3.487h-1.908c-0.326 0-0.592 0.257-0.592 0.574v2.581c0 0.317 0.28 0.58 0.606 0.58h1.903v8.75c0 3.008 1.625 4.528 4.833 4.528 0.909 0 2.462-0.204 3.474-0.543 0.268-0.091 0.434-0.354 0.389-0.634l-0.379-2.456 0.012-0.017 0.002 0.007zM76.761 14.014c-1.772 0-3.926 0.272-5.491 0.691-0.303 0.079-0.49 0.357-0.443 0.645l0.403 2.468c0.023 0.151 0.117 0.286 0.245 0.377 0.131 0.090 0.294 0.113 0.452 0.090 1.453-0.272 2.954-0.43 4.225-0.43 2.518 0 2.924 0.521 2.924 2.173v1.449h-3.731c-3.577 0-5.106 1.426-5.106 4.8 0 3.215 1.679 5.049 4.593 5.049 1.695 0 3.388-0.453 4.81-1.291l0.152 0.527c0.070 0.249 0.303 0.419 0.571 0.419h2.84c0.327 0 0.59-0.26 0.59-0.577v-10.324c0-4.437-1.9-6.090-7.018-6.090l-0.021 0.011 0.005 0.012zM126.438 14.014c-1.772 0-3.917 0.272-5.479 0.691-0.291 0.079-0.478 0.357-0.425 0.645l0.408 2.468c0.023 0.151 0.117 0.286 0.245 0.377 0.133 0.090 0.296 0.113 0.455 0.090 1.445-0.272 2.938-0.43 4.22-0.43 2.518 0 2.914 0.521 2.914 2.173v1.449h-3.731c-3.591 0-5.12 1.426-5.12 4.8 0 3.215 1.675 5.049 4.593 5.049 1.694 0 3.381-0.453 4.803-1.291l0.152 0.527c0.069 0.249 0.302 0.419 0.571 0.419h2.821c0.326 0 0.594-0.26 0.594-0.577v-10.324c0-4.437-1.9-6.090-7.017-6.090l0.006 0.011-0.009 0.012zM29.919 8.082c-0.117-0.085-0.251-0.128-0.388-0.128-0.093 0-0.163 0.014-0.233 0.041-1.399 0.514-2.798 0.906-4.080 1.193-0.256 0.068-0.485 0.249-0.56 0.475-0.933 2.49-3.334 4.868-5.829 7.335-0.093 0.090-0.233 0.226-0.466 0.226s-0.373-0.113-0.466-0.211c-2.518-2.479-4.896-4.834-5.829-7.324-0.093-0.226-0.303-0.408-0.56-0.475-1.282-0.294-2.705-0.691-4.080-1.2-0.070-0.023-0.159-0.034-0.233-0.034-0.14 0-0.275 0.045-0.389 0.128-0.177 0.125-0.268 0.34-0.247 0.543 0.21 2.067 1.061 4.086 2.576 6.203 1.434 1.992 3.287 3.837 5.095 5.619 3.311 3.283 6.447 6.384 6.724 9.984 0.023 0.322 0.303 0.573 0.634 0.573h3.894c0.175 0 0.345-0.068 0.466-0.192s0.186-0.29 0.175-0.46c-0.124-2.403-1.056-4.811-2.851-7.361-0.373-0.532-0.769-1.053-1.193-1.562-0.17-0.204-0.098-0.464 0.033-0.591l0.396-0.389c1.804-1.777 3.661-3.622 5.095-5.615 1.516-2.111 2.355-4.12 2.57-6.186 0.023-0.209-0.075-0.43-0.247-0.558l0.012-0.017-0.018-0.018zM18.378 9.939c1.221 0 1.929-0.076 2.177-0.076 0.28 0 0.583 0.226 0.583 0.566 0 0.091-0.023 0.158-0.047 0.226-0.163 0.417-0.909 1.929-2.285 3.226-0.163 0.145-0.326 0.172-0.443 0.172s-0.303-0.027-0.459-0.172c-1.376-1.297-2.112-2.807-2.273-3.231-0.023-0.068-0.047-0.136-0.047-0.238 0-0.328 0.287-0.577 0.588-0.577 0.249 0 0.956 0.068 2.178 0.068h0.005l0.023 0.023 0.001 0.012zM117.356 7.984h-3.488c-0.326 0-0.592 0.249-0.592 0.566v2.988c0 0.317 0.266 0.575 0.592 0.575h3.497c0.326 0 0.591-0.249 0.591-0.566v-3.012c0-0.317-0.265-0.572-0.591-0.572l-0.009 0.027v-0.007zM35.41 0.855c-0.155-0.204-0.396-0.317-0.653-0.317-0.132 0-0.262 0.027-0.373 0.091-4.78 2.536-10.314 3.878-16.012 3.88-5.696 0-11.231-1.345-16.006-3.883-0.117-0.068-0.245-0.091-0.373-0.091-0.256 0-0.501 0.113-0.653 0.317-0.226 0.272-0.233 0.77 0.152 1.064 2.39 1.721 5.027 3.079 7.834 4.007 2.914 0.951 5.955 1.449 9.046 1.449 3.094 0 6.137-0.498 9.047-1.449 2.81-0.928 5.447-2.287 7.841-4.007 0.385-0.294 0.373-0.792 0.152-1.087v0.025h-0.001z"></path>
</symbol>
<symbol id="icon-audi" viewBox="0 0 126 32">
<path d="M112.98 19.863c0-2.457-1.035-5.302-4.254-9.266l-7.762-9.546h-10.807l6.152 6.698c1.037 1.117 2.357 2.121 2.357 2.121-1.496-0.837-3.391-1.172-4.886-1.172-3.563 0-7.185 0.726-10.405 2.456-3.449 1.841-5.751 4.912-5.751 8.988 0 3.125 1.44 5.526 3.279 7.367 4.139 4.021 11.671 4.411 14.43 4.411 4.082 0 10.465-0.894 14.085-4.075 2.129-1.898 3.565-4.521 3.565-7.98l-0.003-0.001zM124.881 9.312h-9.372v21.882h9.372v-21.882zM47.845 31.194l-20.698-30.144h-11.612l3.209 3.684-18.213 26.46h10.463l3.121-4.967h19.735l3.186 4.966 10.809 0.002zM75.267 22.039v-12.727h-9.081v9.769c0 2.792-0.117 3.571-0.289 4.297-0.631 2.009-2.817 2.902-5.061 2.902-3.104 0-4.542-1.173-5.115-3.015-0.175-0.613-0.23-1.281-0.288-1.953-0.058-0.724 0-1.506 0-2.344v-9.656h-9.198v12.782c0 2.849 0.976 4.968 2.586 6.421 2.759 2.622 7.416 3.405 11.729 3.405 5.232 0 9.258-0.726 12.132-3.462 1.496-1.396 2.588-3.238 2.588-6.419h-0.003zM104.013 20.141c0 2.288-1.552 4.019-3.507 4.968-1.609 0.838-3.507 1.060-5.175 1.060-1.667 0-3.622-0.333-5.231-1.116-1.955-0.948-3.449-2.79-3.449-4.802 0-2.399 1.896-4.297 4.139-5.247 1.38-0.615 3.048-0.838 4.369-0.838 1.265 0 3.106 0.167 4.542 0.726 2.588 1.061 4.313 3.070 4.313 5.248zM30.201 20.344h-12.508l6.233-9.986 6.275 9.986z"></path>
</symbol>
</defs>
</svg>
