<svg aria-hidden="true" style="position: absolute; width: 0; height: 0; overflow: hidden;" version="1.1" xmlns="http://www.w3.org/2000/svg" xmlns:xlink="http://www.w3.org/1999/xlink">
<defs>
<symbol id="icon-header-burger" viewBox="0 0 91 32">
<path d="M4.571 11.393h82.286c1.212 0 2.375-0.482 3.232-1.339s1.339-2.020 1.339-3.232-0.482-2.375-1.339-3.232c-0.857-0.857-2.020-1.339-3.232-1.339h-82.286c-1.212 0-2.375 0.482-3.232 1.339s-1.339 2.020-1.339 3.232c0 1.212 0.482 2.375 1.339 3.232s2.020 1.339 3.232 1.339zM86.857 20.536h-82.286c-1.212 0-2.375 0.482-3.232 1.339s-1.339 2.020-1.339 3.232 0.482 2.375 1.339 3.233c0.857 0.857 2.020 1.339 3.232 1.339h82.286c1.212 0 2.375-0.482 3.232-1.339s1.339-2.020 1.339-3.233-0.482-2.375-1.339-3.233c-0.857-0.857-2.020-1.339-3.232-1.339z"></path>
</symbol>
<symbol id="icon-mob-menu-close" viewBox="0 0 30 32">
<path d="M18.24 15.981l10.585-10.56c0.463-0.463 0.724-1.092 0.724-1.748s-0.26-1.284-0.724-1.748c-0.463-0.464-1.092-0.724-1.748-0.724s-1.284 0.26-1.748 0.724l-10.56 10.585-10.56-10.585c-0.463-0.464-1.092-0.724-1.748-0.724s-1.284 0.26-1.748 0.724c-0.464 0.464-0.724 1.092-0.724 1.748s0.26 1.284 0.724 1.748l10.585 10.56-10.585 10.56c-0.231 0.229-0.414 0.501-0.539 0.801s-0.189 0.622-0.189 0.947 0.064 0.647 0.189 0.947c0.125 0.3 0.308 0.572 0.539 0.801 0.229 0.231 0.501 0.414 0.801 0.539s0.622 0.189 0.947 0.189c0.325 0 0.647-0.064 0.947-0.189s0.572-0.308 0.801-0.539l10.56-10.585 10.56 10.585c0.229 0.231 0.501 0.414 0.801 0.539s0.622 0.189 0.946 0.189c0.325 0 0.647-0.064 0.947-0.189s0.572-0.308 0.801-0.539c0.231-0.229 0.414-0.501 0.539-0.801s0.189-0.622 0.189-0.947-0.064-0.647-0.189-0.947c-0.125-0.3-0.308-0.572-0.539-0.801l-10.585-10.56z"></path>
</symbol>
</defs>
</svg>
