<svg aria-hidden="true" style="position: absolute; width: 0; height: 0; overflow: hidden;" version="1.1" xmlns="http://www.w3.org/2000/svg" xmlns:xlink="http://www.w3.org/1999/xlink">
<defs>
<symbol id="icon-header-burger" viewBox="0 0 91 32">
<path d="M4.571 11.393h82.286c1.212 0 2.375-0.482 3.232-1.339s1.339-2.020 1.339-3.232-0.482-2.375-1.339-3.232c-0.857-0.857-2.020-1.339-3.232-1.339h-82.286c-1.212 0-2.375 0.482-3.232 1.339s-1.339 2.020-1.339 3.232c0 1.212 0.482 2.375 1.339 3.232s2.020 1.339 3.232 1.339zM86.857 20.536h-82.286c-1.212 0-2.375 0.482-3.232 1.339s-1.339 2.020-1.339 3.232 0.482 2.375 1.339 3.233c0.857 0.857 2.020 1.339 3.232 1.339h82.286c1.212 0 2.375-0.482 3.232-1.339s1.339-2.020 1.339-3.233-0.482-2.375-1.339-3.233c-0.857-0.857-2.020-1.339-3.232-1.339z"></path>
</symbol>
<symbol id="icon-mob-menu-close" viewBox="0 0 30 32">
<path d="M18.24 15.981l10.585-10.56c0.463-0.463 0.724-1.092 0.724-1.748s-0.26-1.284-0.724-1.748c-0.463-0.464-1.092-0.724-1.748-0.724s-1.284 0.26-1.748 0.724l-10.56 10.585-10.56-10.585c-0.463-0.464-1.092-0.724-1.748-0.724s-1.284 0.26-1.748 0.724c-0.464 0.464-0.724 1.092-0.724 1.748s0.26 1.284 0.724 1.748l10.585 10.56-10.585 10.56c-0.231 0.229-0.414 0.501-0.539 0.801s-0.189 0.622-0.189 0.947 0.064 0.647 0.189 0.947c0.125 0.3 0.308 0.572 0.539 0.801 0.229 0.231 0.501 0.414 0.801 0.539s0.622 0.189 0.947 0.189c0.325 0 0.647-0.064 0.947-0.189s0.572-0.308 0.801-0.539l10.56-10.585 10.56 10.585c0.229 0.231 0.501 0.414 0.801 0.539s0.622 0.189 0.946 0.189c0.325 0 0.647-0.064 0.947-0.189s0.572-0.308 0.801-0.539c0.231-0.229 0.414-0.501 0.539-0.801s0.189-0.622 0.189-0.947-0.064-0.647-0.189-0.947c-0.125-0.3-0.308-0.572-0.539-0.801l-10.585-10.56z"></path>
</symbol>
<symbol id="icon-drop-down-arrow" viewBox="0 0 48 32">
<path d="M44.001 4.68c-0.75-0.745-1.763-1.163-2.82-1.163s-2.071 0.418-2.82 1.163l-14.36 14.16-14.16-14.16c-0.749-0.745-1.763-1.163-2.82-1.163s-2.071 0.418-2.82 1.163c-0.375 0.372-0.672 0.814-0.876 1.302s-0.308 1.010-0.308 1.538c0 0.528 0.105 1.051 0.308 1.538s0.501 0.93 0.876 1.302l16.96 16.96c0.372 0.375 0.814 0.673 1.302 0.876s1.010 0.308 1.538 0.308 1.051-0.105 1.538-0.308c0.487-0.203 0.93-0.501 1.302-0.876l17.16-16.96c0.375-0.372 0.672-0.814 0.876-1.302s0.308-1.010 0.308-1.538c0-0.528-0.104-1.051-0.308-1.538s-0.501-0.93-0.876-1.302z"></path>
</symbol>
<symbol id="icon-right-arrow" viewBox="0 0 32 32">
<path d="M31.787 14.986c-0.127-0.327-0.317-0.626-0.56-0.88l-13.333-13.333c-0.249-0.249-0.544-0.446-0.869-0.58s-0.673-0.204-1.025-0.204c-0.71 0-1.391 0.282-1.893 0.784-0.249 0.249-0.446 0.544-0.58 0.869s-0.204 0.673-0.204 1.025c0 0.71 0.282 1.391 0.784 1.893l8.8 8.773h-20.24c-0.707 0-1.386 0.281-1.886 0.781s-0.781 1.178-0.781 1.886c0 0.707 0.281 1.386 0.781 1.886s1.178 0.781 1.886 0.781h20.24l-8.8 8.773c-0.25 0.248-0.448 0.543-0.584 0.868s-0.205 0.673-0.205 1.025c0 0.352 0.070 0.701 0.205 1.026s0.334 0.62 0.584 0.868c0.248 0.25 0.543 0.449 0.868 0.584s0.674 0.205 1.026 0.205 0.701-0.070 1.026-0.205c0.325-0.135 0.62-0.334 0.868-0.584l13.333-13.333c0.243-0.254 0.433-0.553 0.56-0.88 0.267-0.649 0.267-1.377 0-2.027z"></path>
</symbol>
<symbol id="icon-atlassian" viewBox="0 0 151 32">
<path d="M106.045 20.693c-2.168-0.543-2.168-0.566-2.168-1.721 0-0.778 0.079-1.149 1.865-1.149 1.227 0 3.031 0.204 4.192 0.401 0.159 0.023 0.322-0.011 0.452-0.113 0.131-0.090 0.215-0.238 0.233-0.396l0.331-2.587c0.023-0.294-0.163-0.566-0.466-0.634-1.352-0.301-3.218-0.498-4.756-0.498-5.386 0-6.482 1.97-6.482 4.929 0 3.252 0.618 4.347 4.738 5.32 2.714 0.634 2.714 1.104 2.714 1.885 0 1.026-0.093 1.381-1.865 1.381-1.432 0-3.087-0.215-4.542-0.593-0.163-0.039-0.326-0.014-0.466 0.068-0.14 0.088-0.24 0.226-0.27 0.385l-0.445 2.469c-0.054 0.283 0.117 0.56 0.396 0.649 1.59 0.498 3.87 0.838 5.544 0.838 5.209 0 6.272-2.128 6.272-5.298 0-3.509-0.639-4.166-5.283-5.359l0.007 0.023v0.001zM92.538 20.693c-2.168-0.543-2.168-0.566-2.168-1.721 0-0.778 0.079-1.149 1.865-1.149 1.224 0 3.031 0.204 4.192 0.401 0.158 0.023 0.322-0.011 0.452-0.113 0.131-0.090 0.214-0.238 0.233-0.396l0.331-2.587c0.037-0.294-0.159-0.566-0.455-0.634-1.329-0.301-3.194-0.498-4.733-0.498-5.372 0-6.482 1.97-6.482 4.929 0 3.252 0.629 4.347 4.747 5.32 2.714 0.634 2.714 1.104 2.714 1.885 0 1.026-0.093 1.381-1.865 1.381-1.434 0-3.089-0.215-4.547-0.593-0.163-0.039-0.327-0.014-0.466 0.068-0.14 0.088-0.24 0.226-0.27 0.385l-0.466 2.456c-0.047 0.283 0.116 0.561 0.403 0.65 1.585 0.498 3.866 0.838 5.542 0.838 5.199 0 6.272-2.128 6.272-5.298 0-3.509-0.648-4.166-5.293-5.359l-0.007 0.023v0.013zM44.73 8.8c-0.077-0.24-0.303-0.403-0.564-0.403h-5.522c-0.257 0-0.49 0.162-0.567 0.4l-6.968 21.439c-0.054 0.17-0.023 0.362 0.089 0.509s0.289 0.234 0.478 0.234h3.8c0.264 0 0.494-0.17 0.569-0.408l4.8-15.78c0 0 0.128-0.396 0.56-0.396 0.443 0 0.56 0.407 0.56 0.407l2.227 7.482h-2.984c-0.257 0-0.49 0.173-0.56 0.419l-0.863 2.966c-0.047 0.17 0 0.362 0.093 0.498 0.117 0.144 0.303 0.226 0.49 0.226h5.095l1.341 4.18c0.075 0.238 0.303 0.401 0.559 0.401h3.8c0.187 0 0.368-0.090 0.48-0.238 0.116-0.149 0.149-0.34 0.093-0.514l-6.975-21.462-0.023 0.036-0.007 0.002zM117.358 14.34h-3.497c-0.326 0-0.59 0.257-0.59 0.574v15.531c0 0.317 0.266 0.579 0.592 0.579h3.497c0.327 0 0.591-0.257 0.591-0.577v-15.527c0-0.317-0.257-0.569-0.583-0.569l-0.012-0.009 0.001-0.001zM67.766 7.978h-3.497c-0.326 0-0.59 0.257-0.59 0.574v21.893c0 0.317 0.266 0.579 0.592 0.579h3.497c0.327 0 0.59-0.257 0.59-0.577v-21.889c0-0.317-0.257-0.569-0.583-0.569l-0.009-0.009v-0.001zM146.386 14.006c-1.847 0-4.371 0.62-6.505 1.594l-0.256-0.838c-0.070-0.249-0.303-0.413-0.566-0.413h-2.588c-0.326 0-0.595 0.257-0.595 0.574v15.531c0 0.317 0.257 0.577 0.584 0.577h3.497c0.326 0 0.595-0.256 0.595-0.577v-10.754c1.258-0.623 3.031-1.268 4.083-1.268 0.788 0 1.079 0.288 1.079 1.053v10.958c0 0.321 0.269 0.577 0.595 0.577h3.497c0.326 0 0.59-0.256 0.59-0.577v-11.402c0-3.334-1.352-5.026-4.013-5.026h-0.003l0.005-0.008zM14.198 23.24c-0.093-0.091-0.226-0.187-0.455-0.187-0.291 0-0.462 0.195-0.527 0.29-1.632 2.422-2.471 4.709-2.588 7.007-0.004 0.17 0.062 0.34 0.181 0.464 0.117 0.136 0.291 0.204 0.466 0.204h3.875c0.338 0 0.618-0.249 0.641-0.566 0.093-1.109 0.443-2.219 1.096-3.373 0.222-0.408 0.047-0.781-0.082-0.943-0.641-0.815-1.426-1.675-2.592-2.859l-0.005-0.023-0.012-0.014zM79.105 24.892v2c-0.571 0.317-1.62 0.747-2.891 0.747-1.084 0-1.422-0.317-1.422-1.381 0-1.019 0.21-1.34 1.492-1.34h2.821v-0.026zM128.791 24.892v2c-0.584 0.317-1.632 0.747-2.891 0.747-1.084 0-1.422-0.317-1.422-1.381 0-1.019 0.21-1.34 1.492-1.34h2.821v-0.026zM61.304 27.705c-0.023-0.163-0.117-0.306-0.256-0.396s-0.306-0.118-0.469-0.079c-0.63 0.149-1.212 0.231-1.679 0.231-0.863 0-1.259-0.362-1.259-1.177v-8.23h3.392c0.326 0 0.592-0.26 0.592-0.577v-2.57c0-0.317-0.268-0.577-0.595-0.577h-3.381v-3.95c0-0.17-0.079-0.325-0.21-0.436-0.128-0.11-0.303-0.158-0.466-0.136l-3.497 0.475c-0.294 0.037-0.513 0.28-0.513 0.566v3.487h-1.908c-0.326 0-0.592 0.257-0.592 0.574v2.581c0 0.317 0.28 0.58 0.606 0.58h1.903v8.75c0 3.008 1.625 4.528 4.833 4.528 0.909 0 2.462-0.204 3.474-0.543 0.268-0.091 0.434-0.354 0.389-0.634l-0.379-2.456 0.012-0.017 0.002 0.007zM76.761 14.014c-1.772 0-3.926 0.272-5.491 0.691-0.303 0.079-0.49 0.357-0.443 0.645l0.403 2.468c0.023 0.151 0.117 0.286 0.245 0.377 0.131 0.090 0.294 0.113 0.452 0.090 1.453-0.272 2.954-0.43 4.225-0.43 2.518 0 2.924 0.521 2.924 2.173v1.449h-3.731c-3.577 0-5.106 1.426-5.106 4.8 0 3.215 1.679 5.049 4.593 5.049 1.695 0 3.388-0.453 4.81-1.291l0.152 0.527c0.070 0.249 0.303 0.419 0.571 0.419h2.84c0.327 0 0.59-0.26 0.59-0.577v-10.324c0-4.437-1.9-6.090-7.018-6.090l-0.021 0.011 0.005 0.012zM126.438 14.014c-1.772 0-3.917 0.272-5.479 0.691-0.291 0.079-0.478 0.357-0.425 0.645l0.408 2.468c0.023 0.151 0.117 0.286 0.245 0.377 0.133 0.090 0.296 0.113 0.455 0.090 1.445-0.272 2.938-0.43 4.22-0.43 2.518 0 2.914 0.521 2.914 2.173v1.449h-3.731c-3.591 0-5.12 1.426-5.12 4.8 0 3.215 1.675 5.049 4.593 5.049 1.694 0 3.381-0.453 4.803-1.291l0.152 0.527c0.069 0.249 0.302 0.419 0.571 0.419h2.821c0.326 0 0.594-0.26 0.594-0.577v-10.324c0-4.437-1.9-6.090-7.017-6.090l0.006 0.011-0.009 0.012zM29.919 8.082c-0.117-0.085-0.251-0.128-0.388-0.128-0.093 0-0.163 0.014-0.233 0.041-1.399 0.514-2.798 0.906-4.080 1.193-0.256 0.068-0.485 0.249-0.56 0.475-0.933 2.49-3.334 4.868-5.829 7.335-0.093 0.090-0.233 0.226-0.466 0.226s-0.373-0.113-0.466-0.211c-2.518-2.479-4.896-4.834-5.829-7.324-0.093-0.226-0.303-0.408-0.56-0.475-1.282-0.294-2.705-0.691-4.080-1.2-0.070-0.023-0.159-0.034-0.233-0.034-0.14 0-0.275 0.045-0.389 0.128-0.177 0.125-0.268 0.34-0.247 0.543 0.21 2.067 1.061 4.086 2.576 6.203 1.434 1.992 3.287 3.837 5.095 5.619 3.311 3.283 6.447 6.384 6.724 9.984 0.023 0.322 0.303 0.573 0.634 0.573h3.894c0.175 0 0.345-0.068 0.466-0.192s0.186-0.29 0.175-0.46c-0.124-2.403-1.056-4.811-2.851-7.361-0.373-0.532-0.769-1.053-1.193-1.562-0.17-0.204-0.098-0.464 0.033-0.591l0.396-0.389c1.804-1.777 3.661-3.622 5.095-5.615 1.516-2.111 2.355-4.12 2.57-6.186 0.023-0.209-0.075-0.43-0.247-0.558l0.012-0.017-0.018-0.018zM18.378 9.939c1.221 0 1.929-0.076 2.177-0.076 0.28 0 0.583 0.226 0.583 0.566 0 0.091-0.023 0.158-0.047 0.226-0.163 0.417-0.909 1.929-2.285 3.226-0.163 0.145-0.326 0.172-0.443 0.172s-0.303-0.027-0.459-0.172c-1.376-1.297-2.112-2.807-2.273-3.231-0.023-0.068-0.047-0.136-0.047-0.238 0-0.328 0.287-0.577 0.588-0.577 0.249 0 0.956 0.068 2.178 0.068h0.005l0.023 0.023 0.001 0.012zM117.356 7.984h-3.488c-0.326 0-0.592 0.249-0.592 0.566v2.988c0 0.317 0.266 0.575 0.592 0.575h3.497c0.326 0 0.591-0.249 0.591-0.566v-3.012c0-0.317-0.265-0.572-0.591-0.572l-0.009 0.027v-0.007zM35.41 0.855c-0.155-0.204-0.396-0.317-0.653-0.317-0.132 0-0.262 0.027-0.373 0.091-4.78 2.536-10.314 3.878-16.012 3.88-5.696 0-11.231-1.345-16.006-3.883-0.117-0.068-0.245-0.091-0.373-0.091-0.256 0-0.501 0.113-0.653 0.317-0.226 0.272-0.233 0.77 0.152 1.064 2.39 1.721 5.027 3.079 7.834 4.007 2.914 0.951 5.955 1.449 9.046 1.449 3.094 0 6.137-0.498 9.047-1.449 2.81-0.928 5.447-2.287 7.841-4.007 0.385-0.294 0.373-0.792 0.152-1.087v0.025h-0.001z"></path>
</symbol>
<symbol id="icon-audi" viewBox="0 0 126 32">
<path d="M112.98 19.863c0-2.457-1.035-5.302-4.254-9.266l-7.762-9.546h-10.807l6.152 6.698c1.037 1.117 2.357 2.121 2.357 2.121-1.496-0.837-3.391-1.172-4.886-1.172-3.563 0-7.185 0.726-10.405 2.456-3.449 1.841-5.751 4.912-5.751 8.988 0 3.125 1.44 5.526 3.279 7.367 4.139 4.021 11.671 4.411 14.43 4.411 4.082 0 10.465-0.894 14.085-4.075 2.129-1.898 3.565-4.521 3.565-7.98l-0.003-0.001zM124.881 9.312h-9.372v21.882h9.372v-21.882zM47.845 31.194l-20.698-30.144h-11.612l3.209 3.684-18.213 26.46h10.463l3.121-4.967h19.735l3.186 4.966 10.809 0.002zM75.267 22.039v-12.727h-9.081v9.769c0 2.792-0.117 3.571-0.289 4.297-0.631 2.009-2.817 2.902-5.061 2.902-3.104 0-4.542-1.173-5.115-3.015-0.175-0.613-0.23-1.281-0.288-1.953-0.058-0.724 0-1.506 0-2.344v-9.656h-9.198v12.782c0 2.849 0.976 4.968 2.586 6.421 2.759 2.622 7.416 3.405 11.729 3.405 5.232 0 9.258-0.726 12.132-3.462 1.496-1.396 2.588-3.238 2.588-6.419h-0.003zM104.013 20.141c0 2.288-1.552 4.019-3.507 4.968-1.609 0.838-3.507 1.060-5.175 1.060-1.667 0-3.622-0.333-5.231-1.116-1.955-0.948-3.449-2.79-3.449-4.802 0-2.399 1.896-4.297 4.139-5.247 1.38-0.615 3.048-0.838 4.369-0.838 1.265 0 3.106 0.167 4.542 0.726 2.588 1.061 4.313 3.070 4.313 5.248zM30.201 20.344h-12.508l6.233-9.986 6.275 9.986z"></path>
</symbol>
<symbol id="icon-ecomm-growth" viewBox="0 0 38 32">
<path fill="#2fdf84" style="fill: var(--color1, #2fdf84)" d="M13.59 25.829c0 0.882 0.715 1.597 1.597 1.597h7.52c0.882 0 1.597-0.715 1.597-1.597h5.841v-14.257h-22.397v14.257h5.841z"></path>
<path fill="#00b871" style="fill: var(--color2, #00b871)" d="M17.251 24.167c-0.096 0-0.192-0.019-0.286-0.058-0.377-0.158-0.554-0.592-0.396-0.969l3.508-8.36c0.158-0.377 0.592-0.554 0.969-0.396s0.554 0.592 0.396 0.969l-3.508 8.36c-0.119 0.283-0.394 0.454-0.683 0.454z"></path>
<path fill="#00b871" style="fill: var(--color2, #00b871)" d="M16.249 19.021c-1.263 0-2.29-1.14-2.29-2.541s1.027-2.542 2.29-2.542c1.263 0 2.29 1.14 2.29 2.542s-1.027 2.541-2.29 2.541zM16.249 15.418c-0.439 0-0.81 0.486-0.81 1.061s0.371 1.061 0.81 1.061c0.439 0 0.81-0.486 0.81-1.061s-0.371-1.061-0.81-1.061z"></path>
<path fill="#00b871" style="fill: var(--color2, #00b871)" d="M21.647 24.736c-1.263 0-2.29-1.14-2.29-2.542s1.027-2.542 2.29-2.542c1.263 0 2.29 1.14 2.29 2.542s-1.027 2.542-2.29 2.542zM21.647 21.133c-0.439 0-0.81 0.486-0.81 1.061s0.371 1.061 0.81 1.061c0.439 0 0.81-0.486 0.81-1.061s-0.371-1.061-0.81-1.061z"></path>
<path fill="#00b871" style="fill: var(--color2, #00b871)" d="M37.155 25.089h-0.694v-21.342c0-1.663-1.353-3.016-3.016-3.016h-28.994c-1.663 0-3.016 1.353-3.016 3.016v21.342h-0.694c-0.409 0-0.74 0.331-0.74 0.74v2.768c0 1.868 1.519 3.387 3.387 3.387h31.121c1.868 0 3.387-1.519 3.387-3.387v-2.768c0-0.409-0.331-0.74-0.74-0.74zM4.45 2.212h28.994c0.847 0 1.536 0.689 1.536 1.536v2.060h-32.065v-2.060c0-0.847 0.689-1.536 1.536-1.536zM2.915 7.288h32.065v17.801h-10.675c-0.409 0-0.74 0.331-0.74 0.74 0 0.473-0.385 0.857-0.857 0.857h-7.52c-0.473 0-0.857-0.385-0.857-0.857 0-0.409-0.331-0.74-0.74-0.74h-10.675v-17.801zM36.414 28.598c0 1.051-0.855 1.907-1.907 1.907h-31.121c-1.051 0-1.907-0.855-1.907-1.907v-2.028h11.49c0.31 0.927 1.187 1.597 2.218 1.597h7.52c1.030 0 1.907-0.67 2.218-1.597h11.49v2.028z"></path>
<path fill="#00b871" style="fill: var(--color2, #00b871)" d="M18.532 4.662h0.831c0.409 0 0.74-0.331 0.74-0.74s-0.331-0.74-0.74-0.74h-0.831c-0.409 0-0.74 0.331-0.74 0.74s0.331 0.74 0.74 0.74z"></path>
</symbol>
<symbol id="icon-ecomm-transp" viewBox="0 0 31 32">
<path fill="#00b871" style="fill: var(--color2, #00b871)" d="M19.578 29.61h-13.983v-20.832h3.275v3.149c0 0.338 0.274 0.611 0.611 0.611s0.611-0.274 0.611-0.611v-3.149h8.385v3.149c0 0.338 0.274 0.611 0.611 0.611s0.611-0.274 0.611-0.611v-3.149h3.172v6.478h1.223v-7.090c0-0.338-0.274-0.611-0.611-0.611h-3.784v-1.523c0-2.971-2.429-5.388-5.415-5.388-0.684 0-1.34 0.127-1.943 0.359-0.603-0.232-1.259-0.359-1.943-0.359-2.986 0-5.415 2.417-5.415 5.388v1.523h-3.784c-0.338 0-0.611 0.274-0.611 0.611v19.758c0 1.603 1.307 2.908 2.912 2.908h17.923c-0.604-0.326-1.244-0.731-1.846-1.223zM14.285 1.867c2.312 0 4.193 1.869 4.193 4.165v1.523h-2.663v-1.523c0-1.664-0.762-3.155-1.958-4.144 0.141-0.014 0.284-0.022 0.428-0.022zM12.342 2.341c1.336 0.697 2.25 2.090 2.25 3.691v1.523h-4.499v-1.523c0-1.601 0.913-2.993 2.25-3.69zM6.206 6.032c0-2.297 1.881-4.165 4.193-4.165 0.145 0 0.287 0.007 0.428 0.022-1.195 0.989-1.958 2.48-1.958 4.144v1.523h-2.663v-1.523h0zM4.372 29.61h-0.871c-0.932 0-1.69-0.756-1.69-1.685v-19.147h2.561v20.832z"></path>
<path fill="#2fdf84" style="fill: var(--color1, #2fdf84)" d="M28.788 17.28c-1.848 0-3.443-1.078-4.184-2.635h-2.174c-0.742 1.558-2.336 2.635-4.184 2.635-0.688 0-1.341-0.15-1.928-0.418v7.615c0 5.57 7.2 7.471 7.2 7.471s7.2-1.901 7.2-7.471v-7.615c-0.587 0.268-1.24 0.418-1.929 0.418z"></path>
<path fill="#00b871" style="fill: var(--color2, #00b871)" d="M23.28 25.445c-0.161 0-0.316-0.064-0.431-0.178l-1.329-1.321c-0.239-0.238-0.241-0.625-0.002-0.865s0.625-0.241 0.865-0.002l0.858 0.853 2.23-2.643c0.218-0.258 0.603-0.291 0.861-0.073s0.291 0.603 0.073 0.862l-2.658 3.151c-0.11 0.131-0.27 0.209-0.441 0.217-0.009 0-0.018 0.001-0.027 0.001z"></path>
</symbol>
<symbol id="icon-ecomm-exp" viewBox="0 0 34 32">
<path fill="#2fdf84" style="fill: var(--color1, #2fdf84)" d="M16.744 26.347c5.745 0 10.402-4.657 10.402-10.402s-4.657-10.402-10.402-10.402-10.402 4.657-10.402 10.402c0 5.745 4.657 10.402 10.402 10.402z"></path>
<path fill="#00b871" style="fill: var(--color2, #00b871)" d="M31.632 18.165c-0.355-0.069-0.698 0.164-0.766 0.518-1.3 6.747-7.239 11.645-14.122 11.645-6.737 0-12.571-4.693-14.033-11.221l0.171 0.171c0.128 0.128 0.295 0.192 0.462 0.192s0.335-0.064 0.462-0.192c0.255-0.255 0.255-0.67 0-0.925l-1.345-1.345c-0.123-0.123-0.289-0.192-0.462-0.192s-0.34 0.069-0.462 0.192l-1.345 1.345c-0.255 0.255-0.255 0.67 0 0.925s0.67 0.255 0.925-0l0.242-0.242c1.46 7.308 7.913 12.6 15.385 12.6 7.508 0 13.988-5.343 15.406-12.705 0.068-0.355-0.164-0.698-0.518-0.766z"></path>
<path fill="#00b871" style="fill: var(--color2, #00b871)" d="M33.297 12.611c-0.255-0.255-0.67-0.255-0.925 0l-0.242 0.242c-1.46-7.308-7.913-12.6-15.385-12.6-7.508 0-13.987 5.343-15.406 12.705-0.068 0.355 0.164 0.698 0.518 0.766s0.698-0.164 0.766-0.518c1.3-6.747 7.239-11.645 14.122-11.645 6.737 0 12.571 4.693 14.033 11.221l-0.171-0.171c-0.255-0.255-0.669-0.255-0.925-0s-0.255 0.669-0 0.925l1.345 1.345c0.123 0.123 0.289 0.192 0.462 0.192s0.34-0.069 0.462-0.192l1.345-1.345c0.256-0.255 0.256-0.67 0-0.925z"></path>
<path fill="#00b871" style="fill: var(--color2, #00b871)" d="M17.434 18.828c0.079 0.032 0.161 0.047 0.241 0.047 0.26 0 0.506-0.156 0.608-0.413l1.81-4.551c0.134-0.336-0.030-0.716-0.366-0.85s-0.716 0.030-0.849 0.366l-1.81 4.551c-0.134 0.336 0.030 0.716 0.366 0.849z"></path>
<path fill="#00b871" style="fill: var(--color2, #00b871)" d="M21.131 14.323h1.502l-1.597 3.634c-0.145 0.331 0.005 0.717 0.335 0.862 0.086 0.038 0.175 0.056 0.263 0.056 0.252-0 0.491-0.146 0.599-0.391l2.001-4.551c0.089-0.202 0.070-0.436-0.051-0.621s-0.327-0.297-0.548-0.297h-2.504c-0.361 0-0.654 0.293-0.654 0.654s0.293 0.654 0.654 0.654z"></path>
<path fill="#00b871" style="fill: var(--color2, #00b871)" d="M12.758 17.209c0.118 0.199 0.332 0.322 0.563 0.322h1.617c-0.002 0.241-0.004 0.472-0.005 0.684-0.003 0.361 0.287 0.657 0.648 0.66h0.006c0.359 0 0.651-0.289 0.654-0.648 0.002-0.171 0.003-0.414 0.006-0.698 0.329-0.034 0.586-0.312 0.586-0.651 0-0.335-0.252-0.612-0.578-0.65 0.006-1.065 0.008-2.136-0.005-2.297-0.035-0.421-0.292-0.765-0.655-0.877s-0.743 0.023-1.019 0.362c-0.259 0.318-1.365 2.306-1.829 3.146-0.112 0.203-0.108 0.449 0.009 0.649zM14.951 15.309c-0.001 0.283-0.002 0.593-0.004 0.913h-0.514c0.182-0.324 0.358-0.636 0.518-0.913z"></path>
<path fill="#00b871" style="fill: var(--color2, #00b871)" d="M12.362 18.908c0.361-0.005 0.65-0.301 0.646-0.662-0.004-0.358-0.296-0.646-0.654-0.646-0.003 0-0.006 0-0.008 0-0.358 0.004-0.734 0.008-1.074 0.009 0.235-0.319 0.537-0.736 0.919-1.281 0.301-0.43 0.498-0.839 0.585-1.215 0.021-0.084 0.039-0.202 0.039-0.324 0.001-1.003-0.816-1.819-1.819-1.819-0.867 0-1.617 0.617-1.785 1.467-0.070 0.354 0.161 0.698 0.516 0.768s0.698-0.161 0.768-0.516c0.047-0.238 0.257-0.411 0.501-0.411 0.27 0 0.492 0.211 0.509 0.477l-0.011 0.090c-0.039 0.149-0.136 0.391-0.376 0.733-0.719 1.028-1.148 1.589-1.379 1.891-0.296 0.387-0.458 0.6-0.35 0.954 0.064 0.208 0.227 0.374 0.438 0.444 0.087 0.029 0.157 0.052 1.050 0.052 0.351-0 0.828-0.004 1.484-0.012z"></path>
</symbol>
<symbol id="icon-ecomm-first" viewBox="0 0 37 32">
<path fill="#00b871" style="fill: var(--color1, #00b871)" d="M18.897 3.75h-0.857c-0.398 0-0.721 0.323-0.721 0.721s0.323 0.721 0.721 0.721h0.857c0.398 0 0.721-0.323 0.721-0.721s-0.323-0.721-0.721-0.721z"></path>
<path fill="#00b871" style="fill: var(--color1, #00b871)" d="M22.86 3.75h-0.857c-0.398 0-0.721 0.323-0.721 0.721s0.323 0.721 0.721 0.721h0.857c0.398 0 0.721-0.323 0.721-0.721s-0.323-0.721-0.721-0.721z"></path>
<path fill="#00b871" style="fill: var(--color1, #00b871)" d="M26.822 3.75h-0.857c-0.398 0-0.721 0.323-0.721 0.721s0.323 0.721 0.721 0.721h0.857c0.398 0 0.721-0.323 0.721-0.721s-0.323-0.721-0.721-0.721z"></path>
<path fill="#00b871" style="fill: var(--color1, #00b871)" d="M10.81 3.75h-6.182c-0.398 0-0.721 0.323-0.721 0.721s0.323 0.721 0.721 0.721h6.182c0.398 0 0.721-0.323 0.721-0.721s-0.323-0.721-0.721-0.721z"></path>
<path fill="#00b871" style="fill: var(--color1, #00b871)" d="M10.373 11.476c-1.662 0-3.014 1.356-3.014 3.023v0.227h-1.923c-0.398 0-0.721 0.323-0.721 0.721v8.19c0 1.355 1.102 2.457 2.457 2.457h6.418c1.355 0 2.457-1.102 2.457-2.457v-8.19c0-0.398-0.323-0.721-0.721-0.721h-1.939v-0.227c0-1.667-1.352-3.023-3.014-3.023zM8.801 14.498c0-0.871 0.705-1.58 1.572-1.58s1.572 0.709 1.572 1.58v0.227h-3.144v-0.227zM14.605 16.168v7.469c0 0.56-0.455 1.015-1.015 1.015h-6.418c-0.56 0-1.015-0.455-1.015-1.015v-7.469h1.202v1.52c0 0.398 0.323 0.721 0.721 0.721s0.721-0.323 0.721-0.721v-1.52h3.144v1.52c0 0.398 0.323 0.721 0.721 0.721s0.721-0.323 0.721-0.721v-1.52h1.218z"></path>
<path fill="#00b871" style="fill: var(--color1, #00b871)" d="M26.964 29.233h-24.54c-0.541 0-0.982-0.438-0.982-0.977v-19.696h27.768v6.868h1.442v-12.625c0-1.334-1.087-2.419-2.424-2.419h-25.804c-1.337-0-2.424 1.085-2.424 2.419v25.454c0 1.334 1.087 2.419 2.424 2.419h26.837c-0.723-0.351-1.541-0.826-2.297-1.442zM1.442 2.802c0-0.539 0.44-0.977 0.982-0.977h25.804c0.541 0 0.982 0.438 0.982 0.977v4.315h-27.768v-4.315z"></path>
<path fill="#2fdf84" style="fill: var(--color2, #2fdf84)" d="M35.051 17.263c-1.795 0-3.343-1.046-4.064-2.557h-2.111c-0.72 1.511-2.269 2.557-4.064 2.557-0.668 0-1.303-0.145-1.873-0.405v7.389c0 5.404 6.992 7.248 6.992 7.248s6.992-1.844 6.992-7.248v-7.389c-0.57 0.26-1.204 0.405-1.873 0.405z"></path>
<path fill="#00b871" style="fill: var(--color1, #00b871)" d="M29.716 25.219c-0.19 0-0.373-0.075-0.508-0.21l-1.209-1.201c-0.283-0.281-0.284-0.737-0.003-1.020s0.737-0.284 1.020-0.003l0.654 0.649 1.913-2.265c0.257-0.304 0.712-0.343 1.016-0.086s0.343 0.712 0.086 1.016l-2.417 2.863c-0.13 0.154-0.318 0.246-0.52 0.255-0.010 0-0.021 0.001-0.032 0.001z"></path>
</symbol>
<symbol id="icon-stonks-arrow" viewBox="0 0 66 32">
<path d="M64.169 3.125c-0.32-0.617-0.934-1.108-1.705-1.364-0.38-0.129-0.787-0.198-1.2-0.202h-15.789c-0.838 0-1.641 0.266-2.233 0.74s-0.925 1.116-0.925 1.786c0 0.67 0.333 1.313 0.925 1.786s1.395 0.74 2.233 0.74h8.179l-17.653 14.122-10.389-8.337c-0.294-0.237-0.643-0.425-1.028-0.553s-0.797-0.194-1.214-0.194c-0.417 0-0.83 0.066-1.214 0.194s-0.734 0.316-1.028 0.553l-18.947 15.158c-0.296 0.235-0.531 0.514-0.691 0.822s-0.243 0.638-0.243 0.972c0 0.333 0.083 0.664 0.243 0.972s0.395 0.587 0.691 0.822c0.294 0.237 0.643 0.425 1.028 0.553s0.798 0.194 1.214 0.194 0.83-0.066 1.214-0.194c0.385-0.128 0.734-0.316 1.028-0.553l16.705-13.389 10.39 8.337c0.294 0.237 0.643 0.425 1.028 0.553s0.798 0.194 1.214 0.194c0.417 0 0.83-0.066 1.214-0.194s0.734-0.316 1.028-0.553l19.863-15.916v6.543c0 0.67 0.333 1.313 0.925 1.786s1.395 0.74 2.233 0.74 1.641-0.266 2.233-0.74c0.592-0.474 0.925-1.116 0.925-1.786v-12.632c-0.005-0.33-0.091-0.656-0.253-0.96z"></path>
</symbol>
</defs>
</svg>
