<svg aria-hidden="true" style="position: absolute; width: 0; height: 0; overflow: hidden;" version="1.1" xmlns="http://www.w3.org/2000/svg" xmlns:xlink="http://www.w3.org/1999/xlink">
<defs>
<symbol id="icon-header-burger" viewBox="0 0 91 32">
<path d="M4.571 11.393h82.286c1.212 0 2.375-0.482 3.232-1.339s1.339-2.020 1.339-3.232-0.482-2.375-1.339-3.232c-0.857-0.857-2.020-1.339-3.232-1.339h-82.286c-1.212 0-2.375 0.482-3.232 1.339s-1.339 2.020-1.339 3.232c0 1.212 0.482 2.375 1.339 3.232s2.020 1.339 3.232 1.339zM86.857 20.536h-82.286c-1.212 0-2.375 0.482-3.232 1.339s-1.339 2.020-1.339 3.232 0.482 2.375 1.339 3.233c0.857 0.857 2.020 1.339 3.232 1.339h82.286c1.212 0 2.375-0.482 3.232-1.339s1.339-2.020 1.339-3.233-0.482-2.375-1.339-3.233c-0.857-0.857-2.020-1.339-3.232-1.339z"></path>
</symbol>
<symbol id="icon-mob-menu-close" viewBox="0 0 30 32">
<path d="M18.24 15.981l10.585-10.56c0.463-0.463 0.724-1.092 0.724-1.748s-0.26-1.284-0.724-1.748c-0.463-0.464-1.092-0.724-1.748-0.724s-1.284 0.26-1.748 0.724l-10.56 10.585-10.56-10.585c-0.463-0.464-1.092-0.724-1.748-0.724s-1.284 0.26-1.748 0.724c-0.464 0.464-0.724 1.092-0.724 1.748s0.26 1.284 0.724 1.748l10.585 10.56-10.585 10.56c-0.231 0.229-0.414 0.501-0.539 0.801s-0.189 0.622-0.189 0.947 0.064 0.647 0.189 0.947c0.125 0.3 0.308 0.572 0.539 0.801 0.229 0.231 0.501 0.414 0.801 0.539s0.622 0.189 0.947 0.189c0.325 0 0.647-0.064 0.947-0.189s0.572-0.308 0.801-0.539l10.56-10.585 10.56 10.585c0.229 0.231 0.501 0.414 0.801 0.539s0.622 0.189 0.946 0.189c0.325 0 0.647-0.064 0.947-0.189s0.572-0.308 0.801-0.539c0.231-0.229 0.414-0.501 0.539-0.801s0.189-0.622 0.189-0.947-0.064-0.647-0.189-0.947c-0.125-0.3-0.308-0.572-0.539-0.801l-10.585-10.56z"></path>
</symbol>
<symbol id="icon-drop-down-arrow" viewBox="0 0 48 32">
<path d="M44.001 4.68c-0.75-0.745-1.763-1.163-2.82-1.163s-2.071 0.418-2.82 1.163l-14.36 14.16-14.16-14.16c-0.749-0.745-1.763-1.163-2.82-1.163s-2.071 0.418-2.82 1.163c-0.375 0.372-0.672 0.814-0.876 1.302s-0.308 1.010-0.308 1.538c0 0.528 0.105 1.051 0.308 1.538s0.501 0.93 0.876 1.302l16.96 16.96c0.372 0.375 0.814 0.673 1.302 0.876s1.010 0.308 1.538 0.308 1.051-0.105 1.538-0.308c0.487-0.203 0.93-0.501 1.302-0.876l17.16-16.96c0.375-0.372 0.672-0.814 0.876-1.302s0.308-1.010 0.308-1.538c0-0.528-0.104-1.051-0.308-1.538s-0.501-0.93-0.876-1.302z"></path>
</symbol>
<symbol id="icon-right-arrow" viewBox="0 0 32 32">
<path d="M31.787 14.986c-0.127-0.327-0.317-0.626-0.56-0.88l-13.333-13.333c-0.249-0.249-0.544-0.446-0.869-0.58s-0.673-0.204-1.025-0.204c-0.71 0-1.391 0.282-1.893 0.784-0.249 0.249-0.446 0.544-0.58 0.869s-0.204 0.673-0.204 1.025c0 0.71 0.282 1.391 0.784 1.893l8.8 8.773h-20.24c-0.707 0-1.386 0.281-1.886 0.781s-0.781 1.178-0.781 1.886c0 0.707 0.281 1.386 0.781 1.886s1.178 0.781 1.886 0.781h20.24l-8.8 8.773c-0.25 0.248-0.448 0.543-0.584 0.868s-0.205 0.673-0.205 1.025c0 0.352 0.070 0.701 0.205 1.026s0.334 0.62 0.584 0.868c0.248 0.25 0.543 0.449 0.868 0.584s0.674 0.205 1.026 0.205 0.701-0.070 1.026-0.205c0.325-0.135 0.62-0.334 0.868-0.584l13.333-13.333c0.243-0.254 0.433-0.553 0.56-0.88 0.267-0.649 0.267-1.377 0-2.027z"></path>
</symbol>
</defs>
</svg>
